<svg xmlns="http://www.w3.org/2000/svg" xmlns:xlink="http://www.w3.org/1999/xlink" width="37" height="40"><defs><path id="a" d="M975.155 1944.428V1953a1.429 1.429 0 0 1-.973 1.36l-8.54 2.857a1.423 1.423 0 0 1-1.801-.906 1.43 1.43 0 0 1 .902-1.808l6.305-2.11a15.626 15.626 0 0 0-11.545-5.104c-8.646-.002-15.656 7.032-15.658 15.711 0 .789-.637 1.429-1.423 1.429s-1.423-.64-1.423-1.429a18.572 18.572 0 0 1 5.199-12.929c7.093-7.354 18.783-7.545 26.11-.424v-5.218c0-.79.638-1.43 1.424-1.43.786 0 1.423.64 1.423 1.43zm2.846 18.572a18.574 18.574 0 0 1-5.199 12.929c-7.093 7.355-18.784 7.545-26.11.424v5.219c0 .789-.638 1.428-1.424 1.428a1.425 1.425 0 0 1-1.423-1.428V1973a1.428 1.428 0 0 1 .973-1.36l8.54-2.857a1.423 1.423 0 0 1 1.801.906 1.431 1.431 0 0 1-.902 1.808l-6.305 2.11a15.63 15.63 0 0 0 11.545 5.105c8.646.001 15.656-7.033 15.658-15.712 0-.79.637-1.428 1.423-1.428s1.423.639 1.423 1.428z"/></defs><use fill="#f44336" xlink:href="#a" transform="translate(-941 -1943)"/></svg>