<svg xmlns="http://www.w3.org/2000/svg" xmlns:xlink="http://www.w3.org/1999/xlink" width="32" height="34"><defs><path id="a" d="M973.99 3420.59a.999.999 0 0 1-.572 1.293l-5.596 2.164a1 1 0 1 1-.721-1.865l5.596-2.164a1 1 0 0 1 1.294.573zm-10.155-1.573a1.001 1.001 0 0 1 .095-1.411l4.52-3.948a1 1 0 1 1 1.315 1.507l-4.518 3.946a1 1 0 0 1-1.412-.094zm11.7 9.41a.998.998 0 0 1-.98 1.02l-6 .119a1 1 0 1 1-.04-2l6-.118a.997.997 0 0 1 1.02.98zm-19.651-15.845l2.885 7.462a1.999 1.999 0 0 1-1.144 2.586l-3.731 1.443 2.885 7.461 3.731-1.442a2 2 0 0 1 2.587 1.143l2.885 7.462a1.998 1.998 0 0 1-1.144 2.587l-1.866.721-5.596 2.164-.003.001c-.22.086-.459.115-.696.118-.047.002-.094.006-.142.001a1.904 1.904 0 0 1-.648-.147c-.042-.017-.076-.042-.118-.061-.088-.046-.182-.083-.266-.142-.262-.184-5.887-3.202-9.493-12.53-3.607-9.326-1.399-15.767-1.284-16.025a1.97 1.97 0 0 1 .453-.641c.19-.183.414-.326.656-.42l7.462-2.885a1.999 1.999 0 0 1 2.587 1.144zm3.482 20.097l2.885 7.46 1.866-.72-2.886-7.462zm-6.193-10.471l-2.886-7.462-3.724 1.44c-.217.664-1.864 6.29 1.312 14.502 2.936 7.593 7.31 10.713 8.58 11.487l.11.068.068.034.025.012a.435.435 0 0 0 .04-.002l3.688-1.426-2.885-7.462a2 2 0 0 1-2.587-1.143l-2.885-7.462a2 2 0 0 1 1.144-2.586zm.845-8.905l-1.865.721 2.885 7.462 1.865-.722z"/></defs><use fill="#f44336" xlink:href="#a" transform="translate(-944 -3411)"/></svg>