<svg xmlns="http://www.w3.org/2000/svg" xmlns:xlink="http://www.w3.org/1999/xlink" width="17" height="18"><defs><path id="a" d="M1423.707 8752.888l-9.819 9.82a.992.992 0 0 1-1.403 0l-4.208-4.21a.991.991 0 0 1 0-1.402l9.82-9.819a.992.992 0 0 1 1.402 0l4.208 4.209a.99.99 0 0 1 0 1.402zm-2.104-.701l-2.806-2.806-2.103 2.105.701.7a.992.992 0 0 1-1.402 1.403l-.702-.701-1.403 1.403.702.7a.993.993 0 0 1-1.403 1.404l-.702-.702-2.104 2.104 2.806 2.806z"/><mask id="c" width="2" height="2" x="-1" y="-1"><path fill="#fff" d="M1407 8746h17v17h-17z"/><use xlink:href="#a"/></mask><filter id="b" width="39.9" height="40.8" x="1396" y="8735" filterUnits="userSpaceOnUse"><feOffset dx=".9" dy="1.8" in="SourceGraphic" result="FeOffset1039Out"/><feGaussianBlur in="FeOffset1039Out" result="FeGaussianBlur1040Out" stdDeviation="0.4 0.4"/></filter></defs><g transform="translate(-1408 -8747)"><g filter="url(#b)"><use fill="none" stroke-opacity=".2" stroke-width="0" mask="url(&quot;#c&quot;)" xlink:href="#a"/><use fill-opacity=".2" xlink:href="#a"/></g><use fill="#fff" xlink:href="#a"/></g></svg>