<svg xmlns="http://www.w3.org/2000/svg" xmlns:xlink="http://www.w3.org/1999/xlink" width="12" height="16"><defs><path id="a" d="M597 9703a5.905 5.905 0 0 1-1.139 3.482c-.012.024-.014.05-.029.073l-4 6a1 1 0 0 1-1.664 0l-4-6c-.015-.022-.017-.05-.03-.073A5.904 5.904 0 0 1 585 9703a6 6 0 0 1 12 0zm-2 0a4 4 0 0 0-8 0c0 1.008.625 2 1 2.697l3 4.5 3-4.5c.486-.697 1-1.689 1-2.697zm-2 0a2 2 0 1 1-4.001 0 2 2 0 0 1 4.001 0z"/></defs><use fill="#f44336" xlink:href="#a" transform="translate(-585 -9697)"/></svg>