<svg xmlns="http://www.w3.org/2000/svg" xmlns:xlink="http://www.w3.org/1999/xlink" width="16" height="16"><defs><path id="a" d="M1168 9699v11.844c0 .553-.455.995-1 1.156l-4 1-6-2-3.75.938c-.13.038-.254.055-.368.055-.541 0-.882-.393-.882-.85v-11.893c0-.552.403-1.05 1-1.25l4-1 6 2 3.846-.961c.09-.022.175-.033.256-.033.563 0 .898.51.898.994zm-9 10.559l2 .666v-9.783l-2-.667zm-2-.62v-9.83l-3 .703v9.876zm9-8.628l-3 .69v9.89l3-.702z"/></defs><use fill="#f44336" xlink:href="#a" transform="translate(-1152 -9697)"/></svg>