<svg xmlns="http://www.w3.org/2000/svg" xmlns:xlink="http://www.w3.org/1999/xlink" width="17" height="17"><defs><path id="a" d="M207.221 9708.094l-1.301 1.302a.94.94 0 0 1-1.333 0 .945.945 0 0 1 0-1.335l1.659-1.66a.94.94 0 0 1 .85-.258l4.146.83a.944.944 0 0 1 .758.927v4.98c0 .437-.3.817-.724.918-3.197.762-7.761-.495-11.663-4.402-3.902-3.905-5.154-8.477-4.393-11.68a.944.944 0 0 1 .918-.726h4.974c.449 0 .836.318.924.76l.83 4.15a.945.945 0 0 1-.258.852l-1.164 1.165a9.883 9.883 0 0 0 2.072 2.534.945.945 0 0 1 .093 1.332.94.94 0 0 1-1.33.093 11.63 11.63 0 0 1-.595-.556 11.945 11.945 0 0 1-2.245-3.156.944.944 0 0 1 .177-1.086l1.302-1.304-.579-2.896h-3.408c-.276 2.543.889 6.055 4.014 9.183 3.127 3.13 6.631 4.298 9.17 4.024v-3.412zm4.779-5.439a.944.944 0 1 1-1.885 0 3.774 3.774 0 0 0-3.77-3.777.943.943 0 0 1 0-1.888 5.66 5.66 0 0 1 5.655 5.664zm-2.827 0a.944.944 0 1 1-1.885 0 .942.942 0 0 0-.942-.944h-.001a.943.943 0 0 1 0-1.89 2.83 2.83 0 0 1 2.828 2.832v.002z"/></defs><use fill="#f44336" xlink:href="#a" transform="translate(-195 -9697)"/></svg>