<svg xmlns="http://www.w3.org/2000/svg" xmlns:xlink="http://www.w3.org/1999/xlink" width="50" height="64"><defs><path id="a" d="M1123 6428h-6v2.213a21.089 21.089 0 0 1 6 0zm-8-2h10v4.601c2.328.57 4.505 1.53 6.457 2.807l3.637-2.729 6.226 6.227-2.948 3.93a20.863 20.863 0 0 1 2.027 5.164H1145v10h-4.606a21.043 21.043 0 0 1-2.023 5.162l2.95 3.932-6.227 6.226-3.63-2.722a20.938 20.938 0 0 1-2.836 1.553l-.822-1.823A19.045 19.045 0 0 0 1139 6451c0-10.477-8.523-19-19-19s-19 8.523-19 19a19.039 19.039 0 0 0 11.2 17.33l-.82 1.824a20.937 20.937 0 0 1-2.844-1.556l-3.63 2.722-6.226-6.226 2.949-3.932a21.041 21.041 0 0 1-2.023-5.162H1095v-10h4.601a20.863 20.863 0 0 1 2.027-5.164l-2.948-3.93 6.226-6.227 3.637 2.729a20.896 20.896 0 0 1 6.457-2.807zm28 28v-6h-2.214a21.088 21.088 0 0 1-.002 6zm-46-6v6h2.216a21.089 21.089 0 0 1-.002-6zm8.094-14.68l-3.774 3.774 1.443 1.923a21.178 21.178 0 0 1 4.087-4.38zm-3.774 31.587l3.774 3.773 1.749-1.312a21.057 21.057 0 0 1-4.081-4.384zm37.36-27.813l-3.774-3.774-1.756 1.318a21.178 21.178 0 0 1 4.087 4.38zm-3.774 31.586l3.774-3.773-1.442-1.924a21.065 21.065 0 0 1-4.081 4.384zM1120 6467c-1.025 0-2.028-.097-3-.282V6485c0 1.654 1.346 3 3 3s3-1.346 3-3v-18.282c-.972.185-1.975.282-3 .282zm-16-16c0-8.822 7.178-16 16-16s16 7.178 16 16c0 7.077-4.619 13.096-11 15.2v18.8c0 2.757-2.243 5-5 5s-5-2.243-5-5v-18.8c-6.381-2.104-11-8.123-11-15.2zm16-14c-7.72 0-14 6.28-14 14s6.28 14 14 14 14-6.28 14-14-6.28-14-14-14zm1 39h-2v-2h2zm0 4h-2v-2h2zm0 4h-2v-2h2zm-24-42h-2v-2h2zm0 20h-2v-2h2zm14-34h-2v-2h2zm20 0h-2v-2h2zm14 14h-2v-2h2zm0 20h-2v-2h2zm-26-12v-3a1 1 0 1 1 2 0v8a1 1 0 0 1-2 0v-3h-3a1 1 0 0 1 0-2zm4 2a1 1 0 0 1 0-2h1a1 1 0 0 1 0 2z"/></defs><use fill="#8f8e93" xlink:href="#a" transform="translate(-1095 -6426)"/></svg>